<svg xmlns="http://www.w3.org/2000/svg" width="30" height="30" viewBox="0 0 30 30" fill="none">
  <path fill-rule="evenodd" clip-rule="evenodd" d="M15.0769 27.2165C8.27937 27.2165 2.76922 21.7063 2.76922 14.9088C2.76922 8.11123 8.27937 2.60107 15.0769 2.60107C21.8744 2.60107 27.3846 8.11123 27.3846 14.9088C27.3846 21.7063 21.8744 27.2165 15.0769 27.2165ZM15.4289 10.9088C12.9637 10.9088 11.0769 12.7586 11.0769 14.9088C11.0769 17.0589 12.9637 18.9088 15.4289 18.9088C16.0578 18.9088 16.6535 18.7857 17.1889 18.5678C17.3012 18.522 17.4213 18.4988 17.5426 18.4994C17.6638 18.5 17.7837 18.5245 17.8955 18.5715C18.0073 18.6184 18.1087 18.687 18.194 18.7731C18.2793 18.8593 18.3468 18.9614 18.3926 19.0737C18.4384 19.1859 18.4617 19.3061 18.4611 19.4274C18.4604 19.5486 18.4359 19.6685 18.389 19.7803C18.342 19.8921 18.2735 19.9935 18.1873 20.0788C18.1011 20.1641 17.999 20.2316 17.8868 20.2774C17.1061 20.5941 16.2714 20.7563 15.4289 20.7549C12.0665 20.7549 9.23076 18.1962 9.23076 14.9088C9.23076 11.6214 12.0665 9.06261 15.4289 9.06261C16.2714 9.06128 17.1061 9.22345 17.8868 9.54015C18.1136 9.63253 18.2945 9.81124 18.3896 10.037C18.4847 10.2627 18.4862 10.517 18.3938 10.7438C18.3015 10.9707 18.1227 11.1516 17.897 11.2467C17.6713 11.3418 17.417 11.3433 17.1901 11.2509C16.6308 11.0238 16.0326 10.9076 15.4289 10.9088Z" fill="#4D4D4D"/>
</svg>