<svg xmlns="http://www.w3.org/2000/svg" width="29" height="29" viewBox="0 0 29 29" fill="none">
  <path d="M12.1667 16.7049L25 3.87158M12.1667 16.7049L16.25 24.8716C16.3012 24.9833 16.3834 25.0779 16.4868 25.1443C16.5902 25.2107 16.7105 25.2459 16.8333 25.2459C16.9562 25.2459 17.0765 25.2107 17.1799 25.1443C17.2833 25.0779 17.3655 24.9833 17.4167 24.8716L25 3.87158M12.1667 16.7049L4.00001 12.6216C3.88831 12.5704 3.79365 12.4882 3.72729 12.3848C3.66093 12.2814 3.62566 12.1611 3.62566 12.0382C3.62566 11.9154 3.66093 11.7951 3.72729 11.6917C3.79365 11.5883 3.88831 11.5061 4.00001 11.4549L25 3.87158" stroke="#034BD9" stroke-width="2" stroke-linecap="round" stroke-linejoin="round"/>
</svg>