<svg xmlns="http://www.w3.org/2000/svg" width="125" height="81" viewBox="0 0 125 81" fill="none">
  <path opacity="0.3" d="M24.3469 7.96062C11.6894 12.8619 2.29693 25.2839 0.429064 40.3142C-1.13129 52.9792 2.59685 66.9731 24.5443 70.9594C67.2471 78.7194 111.267 79.6267 121.476 58.6967C131.685 37.7668 117.714 4.25146 96.0396 1.93182C78.8415 0.0867275 49.0733 -1.6103 24.3469 7.96062Z" fill="white"/>
  <path d="M78.511 5.03366H46.5219C44.5153 5.03366 42.8887 6.66031 42.8887 8.66689V69.122C42.8887 71.1286 44.5153 72.7552 46.5219 72.7552H78.511C80.5176 72.7552 82.1442 71.1286 82.1442 69.122V8.66689C82.1442 6.66031 80.5176 5.03366 78.511 5.03366Z" fill="#333333"/>
  <path opacity="0.03" d="M62.5164 70.6861C64.0869 70.6861 65.36 69.413 65.36 67.8425C65.36 66.272 64.0869 64.9989 62.5164 64.9989C60.946 64.9989 59.6729 66.272 59.6729 67.8425C59.6729 69.413 60.946 70.6861 62.5164 70.6861Z" fill="#333333"/>
  <path d="M78.3139 10.9105H46.7158V63.6398H78.3139V10.9105Z" fill="#EFEBFF"/>
  <path opacity="0.03" d="M58.8986 60.5038C59.4689 60.5038 59.9313 60.0415 59.9313 59.4711C59.9313 58.9008 59.4689 58.4385 58.8986 58.4385C58.3283 58.4385 57.866 58.9008 57.866 59.4711C57.866 60.0415 58.3283 60.5038 58.8986 60.5038Z" fill="#333333"/>
  <path opacity="0.44" d="M62.517 60.5038C63.0873 60.5038 63.5497 60.0415 63.5497 59.4711C63.5497 58.9008 63.0873 58.4385 62.517 58.4385C61.9467 58.4385 61.4844 58.9008 61.4844 59.4711C61.4844 60.0415 61.9467 60.5038 62.517 60.5038Z" fill="white"/>
  <path opacity="0.03" d="M66.1349 60.5038C66.7052 60.5038 67.1676 60.0415 67.1676 59.4711C67.1676 58.9008 66.7052 58.4385 66.1349 58.4385C65.5646 58.4385 65.1023 58.9008 65.1023 59.4711C65.1023 60.0415 65.5646 60.5038 66.1349 60.5038Z" fill="#333333"/>
  <path opacity="0.03" d="M74.0997 16.7266H50.9336V36.5024H74.0997V16.7266Z" fill="#333333"/>
  <path opacity="0.03" d="M67.1863 40.3144H50.9336V42.1253H67.1863V40.3144Z" fill="#333333"/>
  <path opacity="0.03" d="M74.0999 40.3144H68.2837V42.1253H74.0999V40.3144Z" fill="#333333"/>
  <path opacity="0.03" d="M58.5265 45.8681H50.9336V47.6791H58.5265V45.8681Z" fill="#333333"/>
  <path opacity="0.03" d="M74.0998 45.8681H60.1401V47.6791H74.0998V45.8681Z" fill="#333333"/>
  <path opacity="0.03" d="M68.4771 51.4267H50.9336V53.2376H68.4771V51.4267Z" fill="#333333"/>
  <path d="M39.3276 10.9105H7.72949V63.6398H39.3276V10.9105Z" fill="#EFEBFF"/>
  <path opacity="0.44" d="M19.9128 60.5038C20.4831 60.5038 20.9454 60.0415 20.9454 59.4711C20.9454 58.9008 20.4831 58.4385 19.9128 58.4385C19.3425 58.4385 18.8801 58.9008 18.8801 59.4711C18.8801 60.0415 19.3425 60.5038 19.9128 60.5038Z" fill="white"/>
  <path opacity="0.03" d="M23.5307 60.5038C24.101 60.5038 24.5633 60.0415 24.5633 59.4711C24.5633 58.9008 24.101 58.4385 23.5307 58.4385C22.9604 58.4385 22.498 58.9008 22.498 59.4711C22.498 60.0415 22.9604 60.5038 23.5307 60.5038Z" fill="#333333"/>
  <path opacity="0.03" d="M27.1486 60.5038C27.7189 60.5038 28.1812 60.0415 28.1812 59.4711C28.1812 58.9008 27.7189 58.4385 27.1486 58.4385C26.5783 58.4385 26.116 58.9008 26.116 59.4711C26.116 60.0415 26.5783 60.5038 27.1486 60.5038Z" fill="#333333"/>
  <path opacity="0.03" d="M35.1139 16.7266H11.9478V36.5024H35.1139V16.7266Z" fill="#333333"/>
  <path opacity="0.03" d="M28.2005 40.3144H11.9478V42.1253H28.2005V40.3144Z" fill="#333333"/>
  <path opacity="0.03" d="M35.1141 40.3144H29.2979V42.1253H35.1141V40.3144Z" fill="#333333"/>
  <path opacity="0.03" d="M19.5407 45.8681H11.9478V47.6791H19.5407V45.8681Z" fill="#333333"/>
  <path opacity="0.03" d="M35.1135 45.8681H21.1538V47.6791H35.1135V45.8681Z" fill="#333333"/>
  <path opacity="0.03" d="M29.4913 51.4267H11.9478V53.2376H29.4913V51.4267Z" fill="#333333"/>
  <path d="M117.3 10.9105H85.7017V63.6398H117.3V10.9105Z" fill="#EFEBFF"/>
  <path opacity="0.03" d="M97.8847 60.5038C98.455 60.5038 98.9173 60.0415 98.9173 59.4711C98.9173 58.9008 98.455 58.4385 97.8847 58.4385C97.3144 58.4385 96.8521 58.9008 96.8521 59.4711C96.8521 60.0415 97.3144 60.5038 97.8847 60.5038Z" fill="#333333"/>
  <path opacity="0.03" d="M101.503 60.5038C102.073 60.5038 102.535 60.0415 102.535 59.4711C102.535 58.9008 102.073 58.4385 101.503 58.4385C100.933 58.4385 100.47 58.9008 100.47 59.4711C100.47 60.0415 100.933 60.5038 101.503 60.5038Z" fill="#333333"/>
  <path opacity="0.44" d="M105.121 60.5038C105.691 60.5038 106.153 60.0415 106.153 59.4711C106.153 58.9008 105.691 58.4385 105.121 58.4385C104.55 58.4385 104.088 58.9008 104.088 59.4711C104.088 60.0415 104.55 60.5038 105.121 60.5038Z" fill="white"/>
  <path opacity="0.03" d="M113.086 16.7266H89.9199V36.5024H113.086V16.7266Z" fill="#333333"/>
  <path opacity="0.03" d="M106.173 40.3144H89.9199V42.1253H106.173V40.3144Z" fill="#333333"/>
  <path opacity="0.03" d="M113.085 40.3144H107.269V42.1253H113.085V40.3144Z" fill="#333333"/>
  <path opacity="0.03" d="M97.5129 45.8681H89.9199V47.6791H97.5129V45.8681Z" fill="#333333"/>
  <path opacity="0.03" d="M113.09 45.8681H99.1301V47.6791H113.09V45.8681Z" fill="#333333"/>
  <path opacity="0.03" d="M107.463 51.4267H89.9199V53.2376H107.463V51.4267Z" fill="#333333"/>
  <path opacity="0.1" d="M73.2984 72.77C73.2984 72.3904 72.4936 56.8248 73.0099 54.509C73.5262 52.1931 78.2642 40.872 77.0152 39.5508C75.7662 38.2297 71.1914 41.2365 71.1914 41.2365C71.1914 41.2365 72.0266 27.6033 70.0525 26.6314C68.0783 25.6595 67.2013 29.4674 67.2013 29.4674L66.1497 44.7178L60.9409 72.6979L73.2984 72.77Z" fill="#333333"/>
  <path d="M69.7792 56.8972C70.4436 54.2397 71.442 51.6467 72.0798 48.9626C72.5012 47.1858 75.2271 39.7599 75.9902 37.5732C76.2256 36.9012 76.4268 36.0887 75.9712 35.542C75.8175 35.3822 75.6259 35.2636 75.4143 35.1973C75.2026 35.1309 74.9777 35.1189 74.7601 35.1624C74.3213 35.254 73.9165 35.4656 73.5908 35.7736C72.8315 36.4418 71.4306 39.7485 70.4056 39.7447C69.1641 39.7447 69.7488 36.3279 69.7146 35.6711C69.5742 32.8427 69.783 29.2171 68.6782 26.5596C67.8582 24.5854 65.8232 24.8512 65.3449 26.9848C64.8665 29.1184 64.8855 38.0591 64.8855 38.0591C64.8855 38.0591 56.9433 36.6962 55.5879 39.1183C54.2326 41.5405 56.5219 56.9276 56.5219 56.9276L69.7792 56.8972Z" fill="#F4A28C"/>
  <path d="M70.7475 80.5L70.6032 56.0469L55.7628 52.7895L49.7871 80.5H70.7475Z" fill="#633CFF"/>
  <path opacity="0.1" d="M70.7477 80.4999L70.6035 56.0468L63.5192 54.4903L62.2512 80.4999H70.7477Z" fill="#333333"/>
</svg>