<svg width="140" height="42" viewBox="0 0 140 42" fill="none" xmlns="http://www.w3.org/2000/svg">
<g filter="url(#filter0_i_6_19)">
<rect y="1.5" width="39" height="39" rx="8.45" fill="#034BD9"/>
<g clip-path="url(#clip0_6_19)">
<path d="M14.6504 8.85821C14.1832 8.98009 13.7719 9.31524 13.5586 9.75196L13.4316 10.0059L13.4164 13.4691L13.4012 16.9274L12.35 16.9477L11.2938 16.9629L10.9078 17.1508C10.4457 17.3793 10.1613 17.6738 9.93789 18.1461L9.77539 18.4863V24.25V30.0137L9.93789 30.3539C10.141 30.7805 10.4355 31.1055 10.7961 31.2883C11.0246 31.4102 11.0703 31.4559 11.0449 31.5371C10.8926 32.0449 10.9891 32.4512 11.3445 32.8066C11.8625 33.3195 12.5125 33.3195 13.0305 32.8066C13.3301 32.507 13.4367 32.2125 13.391 31.8164L13.3605 31.5625H15.0313H16.702L16.6715 31.8164C16.6258 32.2125 16.7324 32.507 17.032 32.8066C17.55 33.3195 18.2 33.3195 18.718 32.8066C19.0734 32.4512 19.175 32.0398 19.0176 31.5371C18.9922 31.4508 19.0277 31.4152 19.2207 31.3188C19.5965 31.1359 19.891 30.8262 20.1043 30.3895L20.2922 29.9984L23.1867 31.3899C24.7762 32.1566 26.127 32.7813 26.1879 32.7813C26.2488 32.7813 26.3555 32.7305 26.4215 32.6695C26.5738 32.5324 31.6875 21.909 31.6875 21.7363C31.6875 21.4824 32.048 21.6652 24.893 18.2324C23.852 17.7348 23.6387 17.684 23.2172 17.8211C22.7398 17.9836 22.6789 18.0801 21.4551 20.6242L20.3379 22.9551L20.3125 20.7207L20.2871 18.4863L20.1246 18.1461C19.9012 17.6738 19.6168 17.3793 19.1547 17.1508L18.7688 16.9629L17.7125 16.9477L16.6613 16.9274L16.6461 13.4691L16.6309 10.0059L16.4582 9.68595C16.1688 9.15274 15.727 8.87345 15.1379 8.8379C14.9551 8.82774 14.7367 8.83282 14.6504 8.85821ZM15.4781 9.76212C15.5492 9.8129 15.6559 9.92462 15.7117 10.0008C15.8184 10.1379 15.8184 10.1988 15.8336 13.5402L15.8438 16.9375H15.0313H14.2188V13.6164C14.2188 11.382 14.2391 10.2445 14.2746 10.1481C14.3457 9.96017 14.5133 9.78243 14.7012 9.6961C14.9043 9.59962 15.3055 9.63517 15.4781 9.76212ZM26.4977 21.7109C28.4273 22.6402 30.0117 23.4172 30.0117 23.4324C30.0117 23.4731 26.0457 31.7301 26 31.7809C25.9695 31.8164 19.0531 28.5309 18.9059 28.4039C18.7027 28.2363 18.7129 28.2109 20.6223 24.2399C21.6328 22.1375 22.5266 20.284 22.6078 20.1164L22.7551 19.8219L22.8668 19.9234C22.9277 19.9793 24.5629 20.7816 26.4977 21.7109ZM13 25.2656V29.9375H12.5938H12.1875V25.2656V20.5938H12.5938H13V25.2656ZM15.4375 25.2656V29.9375H15.0313H14.625V25.2656V20.5938H15.0313H15.4375V25.2656ZM17.875 25.2656V29.9375H17.4688H17.0625V25.2656V20.5938H17.4688H17.875V25.2656ZM12.4668 31.6895C12.7207 31.9383 12.543 32.375 12.1875 32.375C11.9793 32.375 11.7812 32.177 11.7812 31.9688C11.7812 31.7606 11.9793 31.5625 12.1875 31.5625C12.284 31.5625 12.3906 31.6082 12.4668 31.6895ZM18.1543 31.6895C18.4082 31.9383 18.2305 32.375 17.875 32.375C17.6668 32.375 17.4688 32.177 17.4688 31.9688C17.4688 31.7606 17.6668 31.5625 17.875 31.5625C17.9715 31.5625 18.0781 31.6082 18.1543 31.6895Z" fill="#FFD700"/>
<path d="M24.05 22.1934C22.623 22.5895 21.7039 24.0774 22.0085 25.5094C22.1253 26.0629 22.364 26.5047 22.7753 26.9211C23.3441 27.5 23.9941 27.7742 24.8066 27.7742C26.3605 27.7793 27.6199 26.5098 27.625 24.9356C27.625 23.666 26.7363 22.5235 25.4921 22.1934C25.1468 22.102 24.3851 22.102 24.05 22.1934ZM24.6898 23.143C24.4714 23.336 24.2531 23.5848 23.9839 23.9352L23.8925 24.052L23.5472 23.8946C23.3593 23.8133 23.207 23.7219 23.207 23.7016C23.207 23.6457 23.4914 23.3817 23.7046 23.2344C23.9382 23.077 24.4003 22.9348 24.6949 22.9348L24.9386 22.9297L24.6898 23.143ZM25.3906 24.3821C25.3601 24.5293 25.3144 24.6664 25.289 24.6817C25.223 24.7223 24.6796 24.4532 24.6796 24.377C24.6796 24.3364 24.8472 24.1383 25.0503 23.9352L25.416 23.5645L25.4312 23.8336C25.4414 23.986 25.421 24.2297 25.3906 24.3821ZM26.6703 24.1992C26.782 24.4989 26.8531 25.2403 26.7718 25.3571C26.7363 25.4078 26.65 25.3875 26.3859 25.2606C26.0914 25.1235 26.0457 25.0828 26.071 24.9914C26.1726 24.636 26.2539 24.1485 26.2539 23.8793L26.2589 23.5645L26.4113 23.7422C26.4925 23.8387 26.6093 24.0418 26.6703 24.1992ZM23.1816 24.6157C23.3644 24.7071 23.5117 24.8035 23.5117 24.834C23.5117 24.8594 23.4761 25.0117 23.4355 25.1641C23.3949 25.3164 23.3441 25.6465 23.3238 25.8903L23.2933 26.3371L23.1257 26.0985C22.8464 25.7074 22.7043 25.1387 22.7703 24.6867C22.7906 24.5598 22.816 24.4532 22.8261 24.4532C22.8414 24.4532 22.9988 24.5242 23.1816 24.6157ZM24.6339 25.3164L24.9386 25.4739L24.8218 25.6364C24.6796 25.8395 24.2226 26.2813 24.1566 26.2813C24.1261 26.2813 24.116 26.1442 24.1363 25.9106C24.1718 25.55 24.2531 25.1641 24.3039 25.1641C24.314 25.1641 24.4664 25.2352 24.6339 25.3164ZM26.066 26.0071L26.4316 26.1949L26.1878 26.4133C26.0558 26.5301 25.8222 26.6926 25.675 26.7637C25.4109 26.8907 24.7558 27.0379 24.7 26.977C24.6847 26.9617 24.8168 26.8094 24.9996 26.6418C25.1773 26.4692 25.4058 26.2203 25.4972 26.0782C25.5937 25.941 25.675 25.8242 25.6851 25.8242C25.6902 25.8242 25.8628 25.9055 26.066 26.0071Z" fill="white"/>
<path d="M21.0234 28.0942C20.9371 28.2821 20.8863 28.4496 20.9066 28.47C20.9574 28.5207 24.4308 30.1914 24.4867 30.1914C24.5476 30.1914 24.8371 29.516 24.7965 29.4754C24.7457 29.4246 21.2722 27.7539 21.2215 27.7539C21.1961 27.7539 21.1097 27.9063 21.0234 28.0942Z" fill="white"/>
<path d="M18.5859 8.84805C17.6668 8.93438 17.418 8.98008 17.418 9.05118C17.418 9.09688 17.4434 9.27969 17.4789 9.45743L17.5398 9.78751L17.743 9.75704C18.4336 9.66055 19.2562 9.61485 19.9164 9.64024L20.6629 9.67071L20.6883 9.50821C20.7035 9.4168 20.7238 9.23907 20.7391 9.11212L20.7645 8.87852L20.3785 8.84297C19.9926 8.81251 18.9262 8.81251 18.5859 8.84805Z" fill="white"/>
<path d="M25.9441 9.39652L24.7964 9.97543L24.3699 9.71644C23.6539 9.27973 23.2171 9.16293 22.6687 9.26449C22.2218 9.34574 21.8511 9.55395 21.4703 9.92973C21.0945 10.2903 21.0336 10.4731 21.2164 10.6813C21.2621 10.7371 22.8668 11.7375 24.7711 12.9004C28.6152 15.2414 28.5238 15.1957 29.0722 15.0383C29.3617 14.952 29.4226 14.9063 30.3316 14.0024C31.525 12.809 31.4996 12.9207 30.7582 12.1793C30.3367 11.7579 30.2046 11.6563 30.0878 11.6563C29.9914 11.6563 29.7527 11.7782 29.3921 12.0168L28.8437 12.3825L27.9296 11.7782C27.4269 11.4481 27.0156 11.1586 27.0156 11.1434C27.0156 11.1282 27.2441 10.8082 27.5234 10.4375C28.1531 9.59457 28.1582 9.57934 27.7113 9.13246C27.4574 8.88363 27.3558 8.81254 27.239 8.81762C27.1578 8.81762 26.589 9.07152 25.9441 9.39652Z" fill="white"/>
<path d="M11.8828 11.4887C10.8519 12.2961 9.74999 13.5707 9.01366 14.7946C7.23632 17.7602 6.83007 21.4875 7.92186 24.8086C8.11991 25.418 8.53124 26.3828 8.59218 26.3828C8.62772 26.3828 9.2371 26.0934 9.2828 26.0528C9.28788 26.0477 9.21171 25.8649 9.11015 25.6414C9.01366 25.4231 8.83085 24.9407 8.70897 24.575C7.216 20.1164 8.66327 15.1551 12.3297 12.1743C12.609 11.9457 12.7918 11.768 12.7766 11.7274C12.741 11.6309 12.3754 11.1485 12.3398 11.1485C12.3246 11.1485 12.1164 11.3008 11.8828 11.4887Z" fill="white"/>
<path d="M19.632 13.5656C19.2359 13.6621 18.7332 13.9363 18.3422 14.2664C18.0527 14.5102 17.7684 14.6523 17.55 14.6523C17.484 14.6523 17.4688 14.7184 17.4688 15.0637V15.4801L17.7277 15.4496C18.0629 15.409 18.5453 15.1805 18.8398 14.9215C19.1902 14.6117 19.3527 14.5152 19.693 14.4035C20.2414 14.2156 20.9574 14.307 21.4043 14.6168C21.4855 14.6727 21.6734 14.8301 21.8207 14.9621C22.3793 15.4648 23.0191 15.4902 23.6082 15.0332C23.9789 14.7438 24.0398 14.7641 24.7508 15.4547C25.7613 16.4348 26.2691 16.8156 27.2137 17.2879C28.0871 17.7297 28.9758 17.9887 30.0117 18.1055C30.2758 18.1359 30.4992 18.1664 30.5094 18.1816C30.5703 18.2426 30.8242 19.7 30.8242 19.9945V20.1875H31.2305H31.6367V19.9844C31.6367 19.4512 31.3523 18.0141 31.0781 17.1965C30.9156 16.6938 30.4891 15.6781 30.4129 15.5918C30.3621 15.541 29.707 15.8355 29.707 15.9066C29.707 15.932 29.834 16.2418 29.9863 16.6074L30.2605 17.2676L30.1133 17.2828C29.8848 17.3082 29.1383 17.1559 28.5391 16.9629C27.3914 16.5871 26.5535 16.0539 25.4414 14.9773C24.7965 14.3578 24.6035 14.1953 24.4004 14.1293C23.9434 13.9719 23.527 14.048 23.1105 14.373C22.7906 14.6219 22.6687 14.6066 22.2828 14.2715C21.516 13.6012 20.5512 13.3422 19.632 13.5656Z" fill="white"/>
<path d="M22.948 31.8418C22.9328 31.852 22.6535 31.9332 22.3234 32.0145C21.7293 32.1668 20.9879 32.2887 20.277 32.3496L19.9062 32.3852V32.7914V33.1926L20.3277 33.1621C21.0539 33.1012 21.7902 32.9844 22.4199 32.8219C22.7551 32.7406 23.0801 32.6594 23.1461 32.6442C23.2832 32.6086 23.2832 32.5934 23.1461 32.1617C23.0395 31.8367 23.0039 31.7809 22.948 31.8418Z" fill="white"/>
</g>
</g>
<path d="M45.176 32V9.6H53.464C55.256 9.6 56.7387 9.89867 57.912 10.496C59.0853 11.0933 59.96 11.9147 60.536 12.96C61.112 14.0053 61.4 15.1787 61.4 16.48C61.4 17.7173 61.1227 18.8587 60.568 19.904C60.0133 20.928 59.1493 21.76 57.976 22.4C56.8027 23.0187 55.2987 23.328 53.464 23.328H49.272V32H45.176ZM49.272 20H53.208C54.6373 20 55.6613 19.6907 56.28 19.072C56.92 18.432 57.24 17.568 57.24 16.48C57.24 15.3707 56.92 14.5067 56.28 13.888C55.6613 13.248 54.6373 12.928 53.208 12.928H49.272V20ZM63.2375 32V8.96H67.3335V32H63.2375ZM75.7108 32.384C74.3454 32.384 73.2254 32.1707 72.3508 31.744C71.4761 31.296 70.8254 30.7093 70.3988 29.984C69.9721 29.2587 69.7588 28.4587 69.7588 27.584C69.7588 26.112 70.3348 24.9173 71.4868 24C72.6388 23.0827 74.3668 22.624 76.6708 22.624H80.7028V22.24C80.7028 21.152 80.3934 20.352 79.7748 19.84C79.1561 19.328 78.3881 19.072 77.4708 19.072C76.6388 19.072 75.9134 19.2747 75.2948 19.68C74.6761 20.064 74.2921 20.64 74.1428 21.408H70.1428C70.2494 20.256 70.6334 19.2533 71.2948 18.4C71.9774 17.5467 72.8521 16.896 73.9188 16.448C74.9854 15.9787 76.1801 15.744 77.5028 15.744C79.7641 15.744 81.5454 16.3093 82.8468 17.44C84.1481 18.5707 84.7988 20.1707 84.7988 22.24V32H81.3108L80.9268 29.44C80.4574 30.2933 79.7961 30.9973 78.9428 31.552C78.1108 32.1067 77.0334 32.384 75.7108 32.384ZM76.6388 29.184C77.8121 29.184 78.7188 28.8 79.3588 28.032C80.0201 27.264 80.4361 26.3147 80.6068 25.184H77.1188C76.0308 25.184 75.2521 25.3867 74.7828 25.792C74.3134 26.176 74.0788 26.656 74.0788 27.232C74.0788 27.8507 74.3134 28.3307 74.7828 28.672C75.2521 29.0133 75.8708 29.184 76.6388 29.184ZM87.4275 32V16.128H91.0435L91.3635 18.816C91.8542 17.8773 92.5582 17.1307 93.4755 16.576C94.4142 16.0213 95.5128 15.744 96.7715 15.744C98.7342 15.744 100.26 16.3627 101.347 17.6C102.435 18.8373 102.979 20.6507 102.979 23.04V32H98.8835V23.424C98.8835 22.0587 98.6062 21.0133 98.0515 20.288C97.4968 19.5627 96.6328 19.2 95.4595 19.2C94.3075 19.2 93.3582 19.6053 92.6115 20.416C91.8862 21.2267 91.5235 22.3573 91.5235 23.808V32H87.4275ZM105.264 24.448V21.024H118.672V24.448H105.264ZM121.307 32V9.6H125.403V32H121.307ZM135.441 32C133.777 32 132.443 31.5947 131.441 30.784C130.438 29.9733 129.937 28.5333 129.937 26.464V19.552H127.217V16.128H129.937L130.417 11.872H134.033V16.128H138.321V19.552H134.033V26.496C134.033 27.264 134.193 27.7973 134.513 28.096C134.854 28.3733 135.43 28.512 136.241 28.512H138.225V32H135.441Z" fill="#034BD9"/>
<defs>
<filter id="filter0_i_6_19" x="0" y="1.5" width="41.6" height="41.6" filterUnits="userSpaceOnUse" color-interpolation-filters="sRGB">
<feFlood flood-opacity="0" result="BackgroundImageFix"/>
<feBlend mode="normal" in="SourceGraphic" in2="BackgroundImageFix" result="shape"/>
<feColorMatrix in="SourceAlpha" type="matrix" values="0 0 0 0 0 0 0 0 0 0 0 0 0 0 0 0 0 0 127 0" result="hardAlpha"/>
<feMorphology radius="0.65" operator="erode" in="SourceAlpha" result="effect1_innerShadow_6_19"/>
<feOffset dx="2.6" dy="2.6"/>
<feGaussianBlur stdDeviation="6.5"/>
<feComposite in2="hardAlpha" operator="arithmetic" k2="-1" k3="1"/>
<feColorMatrix type="matrix" values="0 0 0 0 0 0 0 0 0 0 0 0 0 0 0 0 0 0 0.25 0"/>
<feBlend mode="normal" in2="shape" result="effect1_innerShadow_6_19"/>
</filter>
<clipPath id="clip0_6_19">
<rect width="26" height="26" fill="white" transform="translate(6.5 7.99997)"/>
</clipPath>
</defs>
</svg>
