<svg width="138" height="132" viewBox="0 0 138 132" fill="none" xmlns="http://www.w3.org/2000/svg">
<g clip-path="url(#clip0_6_45)">
<path d="M66.8095 78.1389C64.4203 78.8087 64.1194 80.815 63.2533 82.2585C58.3652 90.4748 53.5965 98.7774 48.6125 106.996C47.3791 108.959 45.943 110.786 44.328 112.449C43.8619 112.91 43.2579 113.204 42.6083 113.289C41.9586 113.373 41.2992 113.243 40.731 112.917C40.1247 112.668 39.5969 112.26 39.2032 111.737C38.8096 111.213 38.5647 110.592 38.4946 109.941C38.3282 107.079 39.0407 104.235 40.5364 101.79C43.994 95.1398 47.6042 88.5193 51.1026 81.9294C52.543 79.2438 54.0696 76.6062 55.4566 74.1159C54.0187 72.3209 52.8062 73.2132 51.698 73.5362C43.4858 75.8384 35.3197 78.3074 27.1165 80.6439C24.6799 81.5287 22.1004 81.9543 19.5088 81.8991C17.9538 81.8904 16.429 81.4684 15.0909 80.6763C14.6106 80.3499 14.2015 79.9294 13.8885 79.4403C13.5754 78.9513 13.3647 78.4038 13.2694 77.831C13.1738 77.2584 13.1953 76.6724 13.3325 76.1083C13.4697 75.5442 13.7199 75.0138 14.0678 74.5492C15.4166 72.9626 17.2411 71.8533 19.2704 71.3858C28.0922 68.4479 36.922 65.5242 45.7597 62.6139L49.8771 61.2678C49.2309 58.9631 47.6035 58.7587 46.3566 58.0749C41.3521 55.3587 36.236 52.8417 31.3251 49.991C28.0061 47.9818 24.8021 45.7887 21.7279 43.4219C18.9187 41.3148 18.3001 39.7466 19.2018 38.4734C20.7981 36.3441 22.9205 37.2022 24.877 37.6388C33.2771 39.5113 41.0426 43.0509 48.5862 47.0854C51.7751 48.797 54.9356 50.5777 58.1292 52.2648C58.349 52.3655 58.5907 52.4088 58.8317 52.3907C59.0728 52.3727 59.3053 52.2938 59.5076 52.1616C59.71 52.0293 59.8755 51.8479 59.9887 51.6344C60.102 51.4208 60.1593 51.182 60.1553 50.9403C59.9203 49.6728 59.5928 48.4196 59.3095 47.1541C57.6537 39.8356 55.9407 32.4855 54.3492 25.185C53.9054 23.1719 53.7301 21.1089 53.8279 19.0498C53.9098 17.8793 54.3886 16.7716 55.1852 15.91C55.9808 15.0493 57.0467 14.4865 58.2062 14.3147C59.2471 14.214 60.2943 14.4295 61.2109 14.933C62.1283 15.4366 62.8731 16.2043 63.3485 17.1366C64.1539 18.7546 64.7797 20.456 65.2145 22.2104C66.9759 28.7067 68.6483 35.228 70.3982 41.7269C70.5302 42.4446 70.9326 43.0842 71.5223 43.5139C72.8801 44.0816 73.1812 42.7604 73.6509 41.9559C77.2482 35.675 80.7713 29.3429 84.4252 23.0944C85.5823 21.0787 86.9441 19.1877 88.4891 17.4515C89.2571 16.5518 90.3379 15.9772 91.5132 15.8438C92.6886 15.7104 93.8707 16.0282 94.8207 16.7329C95.6862 17.3291 96.3232 18.202 96.627 19.2081C96.9308 20.2142 96.8834 21.2937 96.4925 22.2693C95.8737 23.9653 95.0907 25.5969 94.1546 27.1406C90.8617 32.7116 87.4946 38.2313 84.156 43.7676C82.6941 46.2067 81.2292 48.6352 79.8101 51.0985C79.7197 51.2557 79.6612 51.4293 79.638 51.6092C79.6147 51.7891 79.6272 51.9718 79.6747 52.1469C79.7222 52.322 79.8038 52.486 79.9148 52.6294C80.0258 52.7729 80.164 52.8931 80.3215 52.9831C80.532 53.103 80.7699 53.1656 81.0123 53.1636C82.0334 53.0372 83.0466 52.8538 84.0465 52.613C93.5712 50.2435 103.083 47.8285 112.628 45.4894C114.367 45.0252 116.156 44.7736 117.956 44.7401C119.009 44.7344 120.035 45.0719 120.879 45.7016C121.724 46.3319 122.342 47.2201 122.639 48.2322C122.932 49.2377 122.87 50.3134 122.464 51.2787C122.058 52.243 121.332 53.0379 120.408 53.5293C118.606 54.5281 116.694 55.3141 114.711 55.8713C107.254 57.9619 99.7673 59.9886 92.3018 62.0931C89.6351 62.8408 87.0052 63.7223 84.46 64.5201C84.3823 66.6794 85.9355 66.8325 86.9476 67.3658C94.2623 71.2243 101.66 74.9506 108.943 78.8662C111.432 80.2493 113.809 81.8236 116.053 83.5748C116.728 83.9849 117.234 84.6228 117.479 85.3733C117.725 86.1238 117.694 86.9373 117.392 87.667C117.25 88.0297 117.038 88.3609 116.768 88.6416C116.497 88.9223 116.175 89.147 115.818 89.3029C115.46 89.4587 115.076 89.5427 114.687 89.5501C114.297 89.5574 113.91 89.4879 113.547 89.3455C111.772 88.9438 110.026 88.4263 108.318 87.7964C100.211 84.5328 91.7785 81.8164 83.9162 77.7155C82.9879 77.2794 82.0279 76.9142 81.0445 76.6231C80.8616 76.555 80.6644 76.5346 80.4715 76.5638C80.2785 76.593 80.0961 76.6709 79.9416 76.7902C79.7869 76.9092 79.665 77.0655 79.5872 77.2445C79.5093 77.4235 79.4781 77.6193 79.4965 77.8136C79.5562 78.8455 79.7456 79.8658 80.0601 80.8504C81.8025 88.9487 83.5351 97.0505 85.3002 105.143C85.9187 107.948 86.4135 110.74 85.5797 113.58C85.4113 114.203 85.082 114.771 84.6249 115.227C84.1679 115.683 83.599 116.011 82.9753 116.178C82.3513 116.344 81.6947 116.342 81.0713 116.174C80.4479 116.007 79.8796 115.678 79.4232 115.221C78.204 113.88 77.3013 112.282 76.7816 110.545C73.5663 102.623 71.0321 94.442 69.2066 86.0898C68.7508 83.3113 68.5479 80.4497 66.8095 78.1389Z" fill="#034BD9"/>
</g>
<defs>
<clipPath id="clip0_6_45">
<rect width="113.324" height="104.808" fill="white" transform="translate(0 30.5907) rotate(-15.6607)"/>
</clipPath>
</defs>
</svg>
